<svg width="400" height="400" viewBox="0 0 400 400" fill="none" xmlns="http://www.w3.org/2000/svg">
<path d="M302.63 28.2471H97.374C68.3791 28.2471 44.874 51.7521 44.874 80.7471V319.256C44.874 348.251 68.3791 371.756 97.374 371.756H302.63C331.624 371.756 355.13 348.251 355.13 319.256V80.7471C355.13 51.7521 331.624 28.2471 302.63 28.2471Z" fill="url(#paint0_linear_970_22349)"/>
<path d="M304.627 218.361L178.099 286.675L139.219 264.233L139.575 263.497L178.099 284.236L301.402 217.305L304.627 218.361Z" fill="url(#paint1_linear_970_22349)" fill-opacity="0.3"/>
<path d="M126.955 247.339C126.399 252.032 117.926 255.584 108.02 254.409C98.1137 253.235 90.5262 247.779 91.0824 243.087C91.6387 238.395 100.12 235.541 110.026 236.716C119.932 237.891 127.511 242.647 126.955 247.339Z" fill="url(#paint2_linear_970_22349)"/>
<path d="M143.248 242.153C133.986 235.542 121.28 233.38 115.923 233.923V250.828L146.85 267.439L146.146 247.913C146.064 245.647 145.093 243.47 143.248 242.153Z" fill="url(#paint3_linear_970_22349)"/>
<path d="M210.095 201.468L211.53 205.551C209.996 205.704 208.691 205.886 207.613 206.161C206.536 206.404 205.459 206.832 204.348 207.441C202.716 208.325 202.292 208.995 203.109 209.421C203.435 209.604 203.826 209.635 204.284 209.513C204.741 209.391 205.556 209.056 206.699 208.507C209.18 207.35 211.661 206.648 214.175 206.435C216.688 206.191 218.876 206.587 220.737 207.563C222.369 208.446 223.217 209.543 223.316 210.884C223.413 212.225 222.695 213.566 221.161 214.876L225.045 217.131L217.276 220.94L213.424 218.502C211.009 219.111 208.755 219.386 206.634 219.294L205.72 214.754C206.895 214.693 208.201 214.48 209.637 214.054C211.073 213.626 212.184 213.23 212.967 212.804C213.652 212.438 214.077 212.072 214.208 211.707C214.371 211.341 214.208 211.067 213.783 210.823C213.457 210.64 213.098 210.61 212.738 210.701C212.379 210.793 211.629 211.098 210.486 211.615C207.548 212.834 204.937 213.566 202.586 213.779C200.268 213.993 198.309 213.688 196.742 212.834C195.534 212.194 194.816 211.402 194.49 210.427C194.196 209.452 194.359 208.477 195.012 207.471L190.703 204.85L197.755 200.615L201.77 203.022C203.141 202.565 204.545 202.169 205.981 201.895C207.45 201.621 208.788 201.468 210.029 201.438L210.095 201.468Z" fill="#ADDA88"/>
<path d="M120.61 237.677C126.504 241.011 126.553 246.427 120.696 249.761C114.852 253.095 105.323 253.095 99.4283 249.761C93.533 246.427 93.4845 241.011 99.3408 237.677C105.185 234.342 114.714 234.342 120.61 237.677Z" fill="url(#paint4_linear_970_22349)"/>
<path d="M99.1399 239.496C104.719 236.245 113.816 236.245 119.444 239.496C121.813 240.865 123.194 242.6 123.575 244.384C124.095 241.916 122.724 239.337 119.44 237.443C113.812 234.192 104.715 234.192 99.136 237.443C95.9078 239.325 94.5594 241.879 95.0883 244.335C95.4633 242.563 96.8133 240.852 99.1399 239.496Z" fill="url(#paint5_linear_970_22349)"/>
<path d="M120.61 233.385C126.504 236.719 126.553 242.135 120.696 245.469C114.852 248.803 105.323 248.803 99.4283 245.469C93.533 242.135 93.4845 236.719 99.3408 233.385C105.185 230.05 114.714 230.05 120.61 233.385Z" fill="url(#paint6_linear_970_22349)"/>
<path d="M99.1398 235.204C104.719 231.953 113.816 231.953 119.444 235.204C121.812 236.573 123.194 238.308 123.575 240.092C124.095 237.624 122.724 235.046 119.44 233.151C113.812 229.9 104.715 229.9 99.1359 233.151C95.9086 235.033 94.5594 237.587 95.0883 240.044C95.4633 238.271 96.8133 236.56 99.1398 235.204Z" fill="url(#paint7_linear_970_22349)"/>
<path d="M127.616 239.097L127.623 242.787C127.616 245.488 125.841 248.176 122.321 250.242C115.219 254.385 103.647 254.385 96.4811 250.242C92.867 248.152 91.0693 245.415 91.0764 242.69L91.0693 238.999C91.0748 241.737 92.8842 244.474 96.4857 246.551C103.652 250.694 115.225 250.694 122.326 246.551C125.858 244.498 127.622 241.797 127.629 239.097H127.616Z" fill="url(#paint8_linear_970_22349)"/>
<path d="M122.418 232.462C129.585 236.473 129.428 242.617 122.326 246.628C115.224 250.639 103.652 250.639 96.4861 246.628C89.3205 242.617 89.2713 236.11 96.3728 232.111C103.474 228.1 115.253 228.451 122.418 232.462ZM99.2392 245.078C104.867 248.225 113.963 248.225 119.543 245.078C125.123 241.931 125.088 236.819 119.46 233.672C113.833 230.526 104.735 230.526 99.1564 233.672C93.5775 236.819 93.6111 241.931 99.2392 245.078Z" fill="url(#paint9_linear_970_22349)"/>
<path d="M120.609 232.808C126.504 236.143 126.553 241.558 120.696 244.893C114.852 248.227 105.323 248.227 99.4272 244.893C93.5319 241.558 93.4834 236.143 99.3405 232.808C105.184 229.474 114.714 229.474 120.609 232.808Z" fill="url(#paint10_linear_970_22349)"/>
<path d="M99.1399 234.628C104.719 231.377 113.816 231.377 119.444 234.628C121.812 235.997 123.194 237.732 123.575 239.516C124.095 237.047 122.723 234.469 119.44 232.575C113.812 229.324 104.715 229.324 99.136 232.575C95.9078 234.457 94.5594 237.011 95.0883 239.467C95.4633 237.695 96.8133 235.984 99.1399 234.628Z" fill="url(#paint11_linear_970_22349)"/>
<path d="M120.61 228.516C126.504 231.851 126.553 237.266 120.696 240.601C114.852 243.935 105.323 243.935 99.4283 240.601C93.533 237.266 93.4845 231.851 99.3408 228.516C105.185 225.182 114.714 225.182 120.61 228.516Z" fill="url(#paint12_linear_970_22349)"/>
<path d="M99.1398 230.336C104.719 227.085 113.816 227.085 119.444 230.336C121.812 231.705 123.194 233.44 123.575 235.224C124.095 232.755 122.724 230.177 119.44 228.283C113.812 225.032 104.715 225.032 99.1359 228.283C95.9086 230.165 94.5594 232.719 95.0883 235.175C95.4633 233.403 96.8133 231.692 99.1398 230.336Z" fill="url(#paint13_linear_970_22349)"/>
<path d="M127.616 234.229L127.623 237.919C127.616 240.62 125.841 243.308 122.321 245.374C115.219 249.516 103.647 249.516 96.4811 245.374C92.867 243.284 91.0693 240.546 91.0764 237.821L91.0693 234.131C91.0748 236.868 92.8842 239.605 96.4857 241.683C103.652 245.825 115.225 245.825 122.326 241.683C125.858 239.63 127.622 236.929 127.629 234.229H127.616Z" fill="url(#paint14_linear_970_22349)"/>
<path d="M122.418 227.594C129.584 231.605 129.428 237.749 122.326 241.76C115.225 245.771 103.652 245.77 96.4864 241.76C89.32 237.749 89.2716 231.241 96.3731 227.242C103.475 223.232 115.253 223.583 122.418 227.594ZM99.2387 240.21C104.867 243.357 113.964 243.357 119.543 240.21C125.122 237.062 125.088 231.952 119.46 228.804C113.832 225.657 104.736 225.657 99.1567 228.804C93.577 231.952 93.6114 237.062 99.2387 240.21Z" fill="url(#paint15_linear_970_22349)"/>
<path d="M120.61 223.565C126.504 226.9 126.553 232.315 120.696 235.65C114.852 238.985 105.323 238.985 99.4283 235.65C93.533 232.315 93.4845 226.9 99.3408 223.565C105.185 220.231 114.714 220.231 120.61 223.565Z" fill="url(#paint16_linear_970_22349)"/>
<path d="M99.1398 225.385C104.719 222.134 113.816 222.134 119.444 225.385C121.812 226.754 123.194 228.489 123.575 230.273C124.095 227.804 122.724 225.226 119.44 223.332C113.812 220.081 104.715 220.081 99.1359 223.332C95.9086 225.214 94.5594 227.768 95.0883 230.225C95.4633 228.453 96.8133 226.742 99.1398 225.385Z" fill="url(#paint17_linear_970_22349)"/>
<path d="M127.616 229.277L127.623 232.968C127.616 235.669 125.841 238.358 122.321 240.423C115.219 244.566 103.647 244.566 96.4811 240.423C92.867 238.333 91.0693 235.595 91.0764 232.87L91.0693 229.18C91.0748 231.917 92.8842 234.655 96.4857 236.732C103.652 240.875 115.225 240.875 122.326 236.732C125.858 234.679 127.622 231.978 127.629 229.277H127.616Z" fill="url(#paint18_linear_970_22349)"/>
<path d="M122.418 222.643C129.585 226.654 129.428 232.798 122.326 236.809C115.224 240.819 103.652 240.819 96.4861 236.809C89.3205 232.798 89.2713 226.291 96.3728 222.291C103.474 218.28 115.253 218.632 122.418 222.643ZM99.2392 235.259C104.867 238.406 113.963 238.406 119.543 235.259C125.122 232.112 125.088 227 119.46 223.853C113.833 220.706 104.735 220.706 99.1564 223.853C93.5775 227 93.6111 232.112 99.2392 235.259Z" fill="url(#paint19_linear_970_22349)"/>
<path d="M121.176 223.228C127.07 226.563 127.12 231.978 121.263 235.313C115.419 238.647 105.889 238.647 99.9947 235.313C94.0994 231.978 94.0509 226.563 99.9072 223.228C105.752 219.894 115.281 219.894 121.176 223.228Z" fill="url(#paint20_linear_970_22349)"/>
<path d="M99.7063 225.048C105.285 221.797 114.382 221.797 120.01 225.048C122.379 226.417 123.76 228.152 124.141 229.936C124.661 227.467 123.291 224.889 120.006 222.995C114.378 219.744 105.281 219.744 99.7024 222.995C96.4743 224.877 95.1258 227.431 95.6547 229.888C96.0297 228.115 97.3797 226.404 99.7063 225.048Z" fill="url(#paint21_linear_970_22349)"/>
<path d="M121.176 218.936C127.07 222.271 127.12 227.686 121.263 231.021C115.419 234.355 105.889 234.355 99.9947 231.021C94.0994 227.686 94.0509 222.271 99.9072 218.936C105.752 215.602 115.281 215.602 121.176 218.936Z" fill="url(#paint22_linear_970_22349)"/>
<path d="M99.7062 220.755C105.285 217.505 114.383 217.505 120.01 220.755C122.379 222.124 123.76 223.86 124.141 225.643C124.661 223.175 123.291 220.596 120.006 218.703C114.379 215.452 105.281 215.452 99.7023 218.703C96.475 220.584 95.1258 223.139 95.6547 225.595C96.0297 223.823 97.3797 222.112 99.7062 220.755Z" fill="url(#paint23_linear_970_22349)"/>
<path d="M128.183 224.648L128.19 228.339C128.183 231.04 126.408 233.729 122.887 235.794C115.786 239.937 104.213 239.937 97.0475 235.794C93.4334 233.705 91.6357 230.967 91.6428 228.241L91.6357 224.551C91.6412 227.288 93.4506 230.026 97.0521 232.103C104.219 236.246 115.791 236.246 122.892 232.103C126.425 230.05 128.188 227.349 128.195 224.648H128.183Z" fill="url(#paint24_linear_970_22349)"/>
<path d="M122.985 218.014C130.151 222.025 129.994 228.169 122.892 232.18C115.791 236.191 104.218 236.191 97.0525 232.18C89.8869 228.169 89.8377 221.662 96.9392 217.662C104.041 213.651 115.819 214.003 122.985 218.014ZM99.8056 230.63C105.433 233.777 114.53 233.777 120.11 230.63C125.688 227.483 125.654 222.372 120.027 219.224C114.399 216.077 105.302 216.077 99.7228 219.224C94.1439 222.372 94.1775 227.483 99.8056 230.63Z" fill="url(#paint25_linear_970_22349)"/>
<path d="M121.176 218.36C127.07 221.695 127.12 227.11 121.263 230.445C115.419 233.779 105.889 233.779 99.9947 230.445C94.0994 227.11 94.0509 221.695 99.9072 218.36C105.752 215.026 115.281 215.026 121.176 218.36Z" fill="url(#paint26_linear_970_22349)"/>
<path d="M99.7063 220.18C105.285 216.929 114.382 216.929 120.01 220.18C122.379 221.548 123.76 223.284 124.141 225.068C124.661 222.599 123.291 220.02 120.006 218.127C114.378 214.876 105.281 214.876 99.7024 218.127C96.4743 220.009 95.1258 222.562 95.6547 225.019C96.0297 223.247 97.3797 221.536 99.7063 220.18Z" fill="url(#paint27_linear_970_22349)"/>
<path d="M121.176 214.068C127.07 217.403 127.12 222.818 121.263 226.153C115.419 229.487 105.889 229.487 99.9947 226.153C94.0994 222.818 94.0509 217.403 99.9072 214.068C105.752 210.734 115.281 210.734 121.176 214.068Z" fill="url(#paint28_linear_970_22349)"/>
<path d="M99.7062 215.888C105.285 212.637 114.383 212.637 120.01 215.888C122.379 217.256 123.76 218.992 124.141 220.776C124.661 218.307 123.291 215.729 120.006 213.835C114.379 210.584 105.281 210.584 99.7023 213.835C96.475 215.717 95.1258 218.271 95.6547 220.727C96.0297 218.955 97.3797 217.244 99.7062 215.888Z" fill="url(#paint29_linear_970_22349)"/>
<path d="M128.183 219.78L128.19 223.471C128.183 226.172 126.408 228.86 122.887 230.926C115.786 235.069 104.213 235.069 97.0475 230.926C93.4334 228.836 91.6357 226.098 91.6428 223.373L91.6357 219.683C91.6412 222.42 93.4506 225.158 97.0521 227.235C104.219 231.378 115.791 231.378 122.892 227.235C126.425 225.182 128.188 222.481 128.195 219.78H128.183Z" fill="url(#paint30_linear_970_22349)"/>
<path d="M122.985 213.146C130.151 217.157 129.994 223.301 122.892 227.311C115.791 231.322 104.218 231.322 97.0525 227.311C89.8869 223.301 89.8377 216.793 96.9392 212.794C104.041 208.783 115.819 209.135 122.985 213.146ZM99.8056 225.761C105.433 228.908 114.53 228.908 120.11 225.761C125.689 222.615 125.654 217.503 120.027 214.356C114.399 211.209 105.302 211.208 99.7228 214.356C94.1439 217.503 94.1775 222.615 99.8056 225.761Z" fill="url(#paint31_linear_970_22349)"/>
<path d="M121.176 209.117C127.07 212.451 127.12 217.867 121.263 221.201C115.419 224.536 105.889 224.536 99.9947 221.201C94.0994 217.867 94.0509 212.451 99.9072 209.117C105.752 205.783 115.281 205.783 121.176 209.117Z" fill="url(#paint32_linear_970_22349)"/>
<path d="M99.7062 210.937C105.285 207.686 114.383 207.686 120.01 210.937C122.379 212.305 123.76 214.04 124.141 215.825C124.661 213.356 123.291 210.777 120.006 208.883C114.379 205.633 105.281 205.633 99.7023 208.883C96.475 210.765 95.1258 213.319 95.6547 215.776C96.0297 214.004 97.3797 212.293 99.7062 210.937Z" fill="url(#paint33_linear_970_22349)"/>
<path d="M128.183 214.83L128.19 218.521C128.183 221.221 126.408 223.91 122.887 225.975C115.786 230.117 104.213 230.117 97.0475 225.975C93.4334 223.885 91.6357 221.148 91.6428 218.422L91.6357 214.731C91.6412 217.469 93.4506 220.206 97.0521 222.284C104.219 226.427 115.791 226.427 122.892 222.284C126.425 220.231 128.188 217.531 128.195 214.83H128.183Z" fill="url(#paint34_linear_970_22349)"/>
<path d="M122.985 208.195C130.151 212.206 129.994 218.35 122.892 222.36C115.791 226.37 104.218 226.371 97.0525 222.36C89.8869 218.35 89.8377 211.842 96.9392 207.843C104.041 203.832 115.819 204.184 122.985 208.195ZM99.8056 220.811C105.433 223.958 114.53 223.958 120.11 220.811C125.688 217.663 125.654 212.552 120.027 209.405C114.399 206.258 105.302 206.258 99.7228 209.405C94.1439 212.552 94.1775 217.663 99.8056 220.811Z" fill="url(#paint35_linear_970_22349)"/>
<path d="M121.176 208.741C127.07 212.076 127.12 217.491 121.263 220.825C115.419 224.16 105.889 224.16 99.9947 220.825C94.0994 217.491 94.0509 212.076 99.9072 208.741C105.752 205.407 115.281 205.407 121.176 208.741Z" fill="url(#paint36_linear_970_22349)"/>
<path d="M99.7063 210.561C105.285 207.31 114.382 207.31 120.01 210.561C122.379 211.929 123.76 213.664 124.141 215.449C124.661 212.98 123.291 210.402 120.006 208.507C114.378 205.257 105.281 205.257 99.7024 208.507C96.4743 210.389 95.1258 212.943 95.6547 215.4C96.0297 213.628 97.3797 211.917 99.7063 210.561Z" fill="url(#paint37_linear_970_22349)"/>
<path d="M121.176 204.454C127.07 207.788 127.12 213.204 121.263 216.538C115.419 219.873 105.889 219.873 99.9947 216.538C94.0994 213.204 94.0509 207.788 99.9072 204.454C105.752 201.12 115.281 201.12 121.176 204.454Z" fill="url(#paint38_linear_970_22349)"/>
<path d="M99.7062 206.273C105.285 203.023 114.383 203.023 120.01 206.273C122.379 207.642 123.76 209.377 124.141 211.162C124.661 208.693 123.291 206.115 120.006 204.22C114.379 200.97 105.281 200.97 99.7023 204.22C96.475 206.102 95.1258 208.656 95.6547 211.112C96.0297 209.341 97.3797 207.63 99.7062 206.273Z" fill="url(#paint39_linear_970_22349)"/>
<path d="M128.183 210.166L128.19 213.857C128.183 216.557 126.408 219.246 122.887 221.311C115.786 225.454 104.213 225.454 97.0475 221.311C93.4334 219.221 91.6357 216.484 91.6428 213.759L91.6357 210.068C91.6412 212.806 93.4506 215.543 97.0521 217.621C104.219 221.764 115.791 221.764 122.892 217.621C126.425 215.568 128.188 212.867 128.195 210.166H128.183Z" fill="url(#paint40_linear_970_22349)"/>
<path d="M122.985 203.533C130.151 207.543 129.994 213.687 122.892 217.698C115.791 221.709 104.218 221.709 97.0525 217.698C89.8869 213.687 89.8377 207.179 96.9392 203.181C104.041 199.17 115.819 199.522 122.985 203.533ZM99.8056 216.148C105.433 219.295 114.53 219.295 120.11 216.148C125.688 213 125.654 207.89 120.027 204.743C114.399 201.596 105.302 201.595 99.7228 204.743C94.1439 207.89 94.1775 213 99.8056 216.148Z" fill="url(#paint41_linear_970_22349)"/>
<path d="M121.176 203.873C127.07 207.208 127.12 212.623 121.263 215.957C115.419 219.292 105.889 219.292 99.9947 215.957C94.0994 212.623 94.0509 207.208 99.9072 203.873C105.752 200.538 115.281 200.538 121.176 203.873Z" fill="url(#paint42_linear_970_22349)"/>
<path d="M99.7063 205.692C105.285 202.442 114.382 202.442 120.01 205.692C122.379 207.061 123.76 208.796 124.141 210.581C124.661 208.112 123.291 205.534 120.006 203.639C114.378 200.388 105.281 200.388 99.7024 203.639C96.4743 205.521 95.1258 208.075 95.6547 210.532C96.0297 208.76 97.3797 207.049 99.7063 205.692Z" fill="url(#paint43_linear_970_22349)"/>
<path d="M121.176 199.581C127.07 202.915 127.12 208.331 121.263 211.665C115.419 215 105.889 215 99.9947 211.665C94.0994 208.331 94.0509 202.915 99.9072 199.581C105.752 196.246 115.281 196.246 121.176 199.581Z" fill="url(#paint44_linear_970_22349)"/>
<path d="M99.7062 201.4C105.285 198.15 114.383 198.15 120.01 201.4C122.379 202.769 123.76 204.504 124.141 206.289C124.661 203.82 123.291 201.241 120.006 199.347C114.379 196.096 105.281 196.096 99.7023 199.347C96.475 201.229 95.1258 203.783 95.6547 206.239C96.0297 204.468 97.3797 202.757 99.7062 201.4Z" fill="url(#paint45_linear_970_22349)"/>
<path d="M128.183 205.294L128.19 208.984C128.183 211.685 126.408 214.373 122.887 216.438C115.786 220.581 104.213 220.581 97.0475 216.438C93.4334 214.349 91.6357 211.612 91.6428 208.886L91.6357 205.195C91.6412 207.933 93.4506 210.67 97.0521 212.748C104.219 216.891 115.791 216.891 122.892 212.748C126.425 210.695 128.188 207.995 128.195 205.294H128.183Z" fill="url(#paint46_linear_970_22349)"/>
<path d="M122.985 198.659C130.151 202.669 129.994 208.813 122.892 212.824C115.791 216.835 104.218 216.835 97.0525 212.824C89.8869 208.813 89.8377 202.306 96.9392 198.307C104.041 194.296 115.819 194.648 122.985 198.659ZM99.8056 211.275C105.433 214.422 114.53 214.422 120.11 211.275C125.688 208.127 125.654 203.016 120.027 199.869C114.399 196.722 105.302 196.722 99.7228 199.869C94.1439 203.016 94.1775 208.127 99.8056 211.275Z" fill="url(#paint47_linear_970_22349)"/>
<path d="M121.176 194.635C127.07 197.969 127.12 203.385 121.263 206.719C115.419 210.053 105.889 210.053 99.9947 206.719C94.0994 203.385 94.0509 197.969 99.9072 194.635C105.752 191.3 115.281 191.3 121.176 194.635Z" fill="url(#paint48_linear_970_22349)"/>
<path d="M99.7062 196.454C105.285 193.203 114.383 193.203 120.01 196.454C122.379 197.823 123.76 199.558 124.141 201.342C124.661 198.874 123.291 196.296 120.006 194.401C114.379 191.15 105.281 191.15 99.7023 194.401C96.475 196.283 95.1258 198.837 95.6547 201.293C96.0297 199.521 97.3797 197.81 99.7062 196.454Z" fill="url(#paint49_linear_970_22349)"/>
<path d="M128.183 200.347L128.19 204.037C128.183 206.738 126.408 209.426 122.887 211.492C115.786 215.635 104.213 215.635 97.0475 211.492C93.4334 209.402 91.6357 206.665 91.6428 203.94L91.6357 200.249C91.6412 202.987 93.4506 205.724 97.0521 207.801C104.219 211.944 115.791 211.944 122.892 207.801C126.425 205.748 128.188 203.047 128.195 200.347H128.183Z" fill="url(#paint50_linear_970_22349)"/>
<path d="M122.985 193.712C130.151 197.723 129.994 203.867 122.892 207.878C115.791 211.889 104.218 211.889 97.0525 207.878C89.8869 203.867 89.8377 197.36 96.9392 193.361C104.041 189.35 115.819 189.701 122.985 193.712ZM99.8056 206.328C105.433 209.475 114.53 209.475 120.11 206.328C125.689 203.181 125.654 198.069 120.027 194.922C114.399 191.776 105.302 191.775 99.7228 194.922C94.1439 198.069 94.1775 203.181 99.8056 206.328Z" fill="url(#paint51_linear_970_22349)"/>
<path d="M301.366 193.779L301.301 217.882L177.969 284.8L178.034 260.696L301.366 193.779Z" fill="url(#paint52_linear_970_22349)"/>
<path d="M178.041 260.701L177.975 284.805L115.591 251.194L115.689 227.09L178.041 260.701Z" fill="url(#paint53_linear_970_22349)"/>
<path d="M115.684 227.093L178.035 260.704L301.368 193.787L239.016 160.176L115.684 227.093Z" fill="#00B385"/>
<path d="M279.291 189.941C275.374 192.074 275.374 195.517 279.324 197.65L240.966 218.463C246.94 211.363 244.459 202.678 233.621 196.828C222.783 190.977 206.722 189.667 193.598 192.927L231.956 172.114C235.906 174.247 242.305 174.247 246.222 172.114L279.291 189.941ZM223.435 227.972L185.077 248.785C181.127 246.652 174.729 246.652 170.812 248.785L137.743 230.959C141.66 228.826 141.66 225.382 137.71 223.249L176.068 202.437C170.094 209.537 172.575 218.221 183.412 224.072C194.25 229.923 210.312 231.233 223.435 227.972Z" fill="#ADDA88"/>
<path d="M239.041 163.403L295.418 193.785L178.028 257.471L121.65 227.091L239.041 163.403ZM177.995 255.856L292.415 193.785L239.041 165.018L124.621 227.091L177.995 255.856Z" fill="#ADDA88"/>
<path d="M160.186 202.924L222.537 236.535L257.989 217.277L195.67 183.696L160.186 202.924Z" fill="white"/>
<path d="M222.536 236.538L222.471 260.642L258.021 241.353V217.28L222.536 236.538Z" fill="#D2E4F9"/>
<path d="M210.698 176.768L212.112 180.786C210.601 180.936 209.317 181.116 208.257 181.386C207.197 181.626 206.137 182.046 205.044 182.645C203.438 183.515 203.02 184.175 203.823 184.594C204.145 184.775 204.53 184.804 204.979 184.684C205.429 184.565 206.233 184.234 207.357 183.695C209.798 182.555 212.24 181.865 214.714 181.656C217.187 181.416 219.34 181.805 221.171 182.765C222.776 183.635 223.612 184.715 223.708 186.033C223.804 187.353 223.098 188.672 221.588 189.962L225.411 192.181L217.765 195.929L213.975 193.53C211.597 194.13 209.381 194.4 207.293 194.31L206.394 189.842C207.55 189.782 208.835 189.572 210.248 189.152C211.662 188.733 212.754 188.343 213.525 187.923C214.2 187.563 214.617 187.203 214.746 186.844C214.906 186.483 214.746 186.214 214.328 185.974C214.007 185.794 213.654 185.764 213.3 185.854C212.947 185.944 212.208 186.244 211.083 186.754C208.192 187.953 205.622 188.672 203.309 188.883C201.029 189.092 199.101 188.793 197.559 187.953C196.37 187.323 195.664 186.544 195.343 185.584C195.054 184.624 195.214 183.665 195.857 182.676L191.616 180.097L198.555 175.929L202.506 178.297C203.855 177.847 205.237 177.458 206.651 177.188C208.096 176.918 209.413 176.768 210.633 176.738L210.698 176.768Z" fill="#ADDA88"/>
<path d="M300.512 169.209L300.448 192.929L179.082 258.779L179.146 235.06L300.512 169.209Z" fill="url(#paint54_linear_970_22349)"/>
<path d="M179.149 235.062L179.085 258.781L117.695 225.706L117.791 201.986L179.149 235.062Z" fill="url(#paint55_linear_970_22349)"/>
<path d="M117.783 201.983L179.14 235.058L300.507 169.208L239.149 136.133L117.783 201.983Z" fill="#00B385"/>
<path d="M278.795 165.422C274.94 167.521 274.94 170.91 278.827 173.009L241.08 193.49C246.959 186.503 244.518 177.957 233.852 172.2C223.187 166.442 207.382 165.153 194.468 168.361L232.214 147.881C236.101 149.979 242.398 149.979 246.252 147.881L278.795 165.422ZM223.831 202.843L186.085 223.324C182.198 221.225 175.902 221.225 172.047 223.324L139.505 205.782C143.359 203.682 143.359 200.294 139.473 198.195L177.219 177.714C171.34 184.701 173.781 193.247 184.447 199.005C195.112 204.763 210.917 206.052 223.831 202.843Z" fill="#ADDA88"/>
<path d="M239.187 139.306L294.665 169.203L179.146 231.874L123.667 201.978L239.187 139.306ZM179.114 230.285L291.71 169.203L239.187 140.896L126.59 201.978L179.114 230.285Z" fill="#ADDA88"/>
<path d="M161.577 178.204L222.935 211.279L257.822 192.328L196.496 159.282L161.577 178.204Z" fill="white"/>
<path d="M222.935 211.286L222.871 235.005L257.855 216.024V192.335L222.935 211.286Z" fill="#D2E4F9"/>
<path d="M210.698 149.907L212.112 153.925C210.601 154.075 209.317 154.255 208.257 154.525C207.197 154.765 206.137 155.185 205.044 155.785C203.438 156.654 203.02 157.313 203.823 157.734C204.145 157.913 204.53 157.943 204.979 157.824C205.429 157.703 206.233 157.374 207.357 156.834C209.798 155.695 212.24 155.005 214.714 154.795C217.187 154.555 219.34 154.945 221.171 155.904C222.776 156.774 223.612 157.853 223.708 159.173C223.804 160.492 223.098 161.812 221.588 163.101L225.411 165.321L217.765 169.068L213.975 166.67C211.597 167.269 209.381 167.539 207.293 167.449L206.394 162.981C207.55 162.921 208.835 162.711 210.248 162.292C211.662 161.872 212.754 161.482 213.525 161.062C214.2 160.703 214.617 160.342 214.746 159.982C214.906 159.623 214.746 159.353 214.328 159.113C214.007 158.933 213.654 158.903 213.3 158.993C212.947 159.083 212.208 159.383 211.083 159.892C208.192 161.092 205.622 161.812 203.309 162.021C201.029 162.231 199.101 161.931 197.559 161.092C196.37 160.463 195.664 159.683 195.343 158.723C195.054 157.763 195.214 156.804 195.857 155.814L191.616 153.235L198.555 149.067L202.506 151.436C203.855 150.987 205.237 150.597 206.651 150.327C208.096 150.057 209.413 149.907 210.633 149.877L210.698 149.907Z" fill="#ADDA88"/>
<path d="M300.512 142.349L300.448 166.068L179.082 231.918L179.146 208.199L300.512 142.349Z" fill="url(#paint56_linear_970_22349)"/>
<path d="M179.149 208.202L179.085 231.921L117.695 198.846L117.791 175.127L179.149 208.202Z" fill="url(#paint57_linear_970_22349)"/>
<path d="M117.783 175.122L179.14 208.197L300.507 142.347L239.149 109.272L117.783 175.122Z" fill="#00B385"/>
<path d="M278.795 138.563C274.94 140.662 274.94 144.05 278.827 146.149L241.08 166.63C246.959 159.643 244.518 151.097 233.852 145.34C223.187 139.582 207.382 138.293 194.468 141.502L232.214 121.021C236.101 123.12 242.398 123.12 246.252 121.021L278.795 138.563ZM223.831 175.983L186.085 196.464C182.198 194.365 175.902 194.365 172.047 196.464L139.505 178.922C143.359 176.823 143.359 173.435 139.473 171.335L177.219 150.855C171.34 157.842 173.781 166.388 184.447 172.145C195.112 177.903 210.917 179.192 223.831 175.983Z" fill="#ADDA88"/>
<path d="M239.187 112.446L294.665 142.343L179.146 205.014L123.667 175.118L239.187 112.446ZM179.114 203.425L291.71 142.343L239.187 114.035L126.59 175.118L179.114 203.425Z" fill="#ADDA88"/>
<path d="M161.577 151.343L222.935 184.419L257.822 165.467L196.496 132.422L161.577 151.343Z" fill="white"/>
<path d="M222.935 184.425L222.871 208.145L257.855 189.163V165.474L222.935 184.425Z" fill="#D2E4F9"/>
<path fill-rule="evenodd" clip-rule="evenodd" d="M306.724 223.57C306.767 223.48 306.78 223.379 306.764 223.281C306.747 223.183 306.7 223.092 306.63 223.021L298.136 214.284L296.896 201.353C296.884 201.241 296.836 201.136 296.757 201.055C296.679 200.974 296.575 200.922 296.464 200.907L285.957 199.468L278.856 189.251C278.819 189.197 278.771 189.15 278.716 189.114C278.66 189.079 278.599 189.054 278.534 189.043C278.469 189.031 278.402 189.032 278.338 189.047C278.274 189.061 278.213 189.089 278.159 189.127L269.665 195.421L265.541 188.697L260.554 190.864C260.061 191.077 259.621 191.396 259.266 191.799C258.911 192.203 258.65 192.68 258.502 193.196L255.482 203.7L252.533 203.299L246.981 207.857C246.657 208.126 246.416 208.482 246.288 208.883C246.159 209.284 246.149 209.713 246.257 210.12L248.817 220.024L244.259 229.636C243.736 230.739 243.951 232.064 244.802 232.988L252.236 241.056L253.284 251.957C253.422 253.388 254.553 254.556 255.992 254.754L263.774 255.82C264.188 255.876 264.565 256.097 264.818 256.431L269.267 262.286C271.097 264.694 274.525 265.196 276.856 263.396L281.411 259.883C281.629 259.718 281.887 259.615 282.159 259.584C282.431 259.553 282.706 259.596 282.955 259.708L288.593 262.196C290.036 262.832 291.697 262.544 292.786 261.47L297.399 256.925V251.881L303.938 248.436C305.392 247.672 306.621 246.542 307.505 245.158L309.043 242.75L301.547 234.207L306.724 223.57Z" fill="#125AAB"/>
<path fill-rule="evenodd" clip-rule="evenodd" d="M290.338 220.465C290.34 220.366 290.311 220.268 290.256 220.186C290.201 220.103 290.121 220.039 290.029 220.004L278.711 215.487L272.307 204.186C272.25 204.088 272.163 204.013 272.059 203.971C271.954 203.929 271.839 203.923 271.731 203.954L261.55 206.923L259.245 191.611L254.938 199.169C254.886 199.26 254.805 199.332 254.708 199.371L243.881 203.942C242.241 204.634 241.327 206.343 241.678 208.058L244.553 222.11L238.488 228.71C237.518 229.765 237.457 231.349 238.343 232.495L244.553 240.532L249.329 242.886L250.271 253.239C250.377 254.409 251.393 255.314 252.601 255.314H264.339L264.615 255.7C268.77 261.536 276.94 263.1 282.943 259.209C282.957 259.2 282.973 259.195 282.99 259.193C283.006 259.192 283.023 259.195 283.038 259.201L289.057 261.79C290.824 262.55 292.879 261.934 293.873 260.347L295.806 257.261L290.975 250.921L298.179 242.936C298.208 242.903 298.233 242.865 298.253 242.825L301.007 237.109L289.948 232.289L290.338 220.465Z" fill="url(#paint58_linear_970_22349)" fill-opacity="0.3"/>
<path fill-rule="evenodd" clip-rule="evenodd" d="M310.575 222.412C311.54 220.429 311.127 218.023 309.544 216.394L304.79 211.504C303.927 210.62 303.39 209.468 303.268 208.239L302.583 201.102C302.343 198.598 300.363 196.553 297.844 196.207L293.673 195.636C292.914 195.53 292.185 195.269 291.532 194.869C290.88 194.468 290.317 193.936 289.88 193.307L287.098 189.305C285.344 186.782 281.858 186.162 279.451 187.946L277.238 189.585C275.826 190.631 273.957 190.89 272.26 190.276L269.602 189.314C266.71 188.266 263.594 189.803 262.765 192.685L261.455 197.247C261.248 197.966 260.886 198.631 260.392 199.194C259.899 199.757 259.288 200.204 258.601 200.503L254.841 202.154C252.544 203.162 251.333 205.654 251.943 208.114L253.674 215.096C253.971 216.274 253.845 217.519 253.319 218.614L250.414 224.609C249.454 226.591 249.867 228.993 251.448 230.62L256.207 235.515C257.07 236.399 257.607 237.55 257.73 238.779L258.419 245.954C258.66 248.457 260.64 250.501 263.158 250.847L267.331 251.418C268.09 251.524 268.818 251.785 269.471 252.186C270.124 252.587 270.686 253.118 271.123 253.747L273.821 257.627C275.606 260.196 279.176 260.784 281.576 258.904L283.539 257.368C284.978 256.24 286.929 255.956 288.687 256.616L291.351 257.618C294.256 258.708 297.415 257.175 298.25 254.268L299.545 249.762C299.751 249.045 300.112 248.383 300.602 247.821C301.093 247.26 301.701 246.813 302.383 246.513L306.169 244.836C308.456 243.823 309.66 241.336 309.051 238.882L307.318 231.892C307.02 230.711 307.148 229.462 307.677 228.365L310.575 222.412Z" fill="#1F7AE0"/>
<path fill-rule="evenodd" clip-rule="evenodd" d="M290.9 211.085C290.264 210.599 289.519 210.425 288.831 210.603C288.143 210.781 287.569 211.296 287.235 212.034L278.506 231.201L271.692 227.075C270.328 226.352 268.843 227.011 268.31 228.577C267.778 230.143 268.382 232.07 269.687 232.968L278.105 238.064C279.674 239.014 281.688 238.429 282.425 236.809L292.042 215.694C292.378 214.957 292.446 214.057 292.232 213.193C292.017 212.328 291.539 211.57 290.9 211.085Z" fill="white"/>
<path d="M112.517 209.902C106.273 210.248 105.966 210.53 105.588 216.254C105.21 210.53 104.902 210.248 98.6572 209.902C104.902 209.555 105.21 209.273 105.588 203.549C105.966 209.273 106.273 209.555 112.517 209.902Z" fill="white"/>
<path d="M143.341 249.09C133.016 240.275 119.847 240.663 114.614 241.542V241.852L139.292 263.977L145.756 267.445V254.712C145.756 252.574 144.967 250.477 143.341 249.09Z" fill="url(#paint59_linear_970_22349)"/>
<path d="M142 268.043C141.924 273.224 132.847 278.053 121.612 277.888C110.379 277.723 101.241 272.628 101.317 267.446C101.393 262.266 110.562 258.2 121.797 258.365C133.031 258.529 142.076 262.863 142 268.043Z" fill="url(#paint60_linear_970_22349)"/>
<path d="M132.193 260.557C138.42 264.08 138.471 269.8 132.284 273.323C126.111 276.845 116.044 276.845 109.817 273.323C103.589 269.8 103.538 264.08 109.725 260.557C115.898 257.034 125.964 257.034 132.193 260.557Z" fill="url(#paint61_linear_970_22349)"/>
<path d="M109.513 262.484C115.406 259.049 125.016 259.049 130.961 262.484C133.463 263.93 134.922 265.763 135.325 267.648C135.874 265.04 134.426 262.316 130.957 260.315C125.012 256.881 115.402 256.881 109.508 260.315C106.099 262.303 104.674 265.001 105.232 267.596C105.628 265.724 107.055 263.917 109.513 262.484Z" fill="url(#paint62_linear_970_22349)"/>
<path d="M132.202 256.026C138.43 259.548 138.481 265.269 132.294 268.791C126.121 272.314 116.054 272.314 109.826 268.791C103.599 265.269 103.548 259.548 109.735 256.026C115.908 252.503 125.975 252.503 132.202 256.026Z" fill="url(#paint63_linear_970_22349)"/>
<path d="M109.522 257.948C115.415 254.513 125.026 254.513 130.971 257.948C133.473 259.394 134.932 261.227 135.335 263.112C135.883 260.504 134.436 257.78 130.966 255.779C125.022 252.345 115.412 252.345 109.518 255.779C106.108 257.766 104.683 260.465 105.242 263.06C105.638 261.188 107.064 259.38 109.522 257.948Z" fill="url(#paint64_linear_970_22349)"/>
<path d="M139.604 262.056L139.612 265.955C139.604 268.808 137.729 271.648 134.01 273.83C126.508 278.206 114.283 278.206 106.713 273.83C102.895 271.623 100.996 268.73 101.004 265.852L100.996 261.953C101.002 264.845 102.914 267.737 106.718 269.931C114.288 274.308 126.513 274.308 134.016 269.931C137.747 267.763 139.609 264.909 139.616 262.056H139.604Z" fill="url(#paint65_linear_970_22349)"/>
<path d="M134.113 255.049C141.682 259.287 141.517 265.777 134.015 270.014C126.513 274.251 114.288 274.251 106.718 270.014C99.1477 265.777 99.0962 258.902 106.599 254.678C114.101 250.441 126.542 250.812 134.113 255.049ZM109.626 268.377C115.571 271.701 125.181 271.701 131.074 268.377C136.968 265.052 136.932 259.652 130.988 256.328C125.042 253.003 115.432 253.003 109.538 256.328C103.645 259.652 103.681 265.052 109.626 268.377Z" fill="url(#paint66_linear_970_22349)"/>
<path d="M132.193 255.415C138.42 258.938 138.471 264.658 132.284 268.181C126.111 271.704 116.044 271.704 109.817 268.181C103.589 264.658 103.538 258.938 109.725 255.415C115.898 251.893 125.964 251.893 132.193 255.415Z" fill="url(#paint67_linear_970_22349)"/>
<path d="M109.513 257.342C115.406 253.908 125.016 253.908 130.961 257.342C133.463 258.788 134.922 260.621 135.325 262.506C135.874 259.898 134.426 257.174 130.957 255.173C125.012 251.739 115.402 251.739 109.508 255.173C106.099 257.162 104.674 259.859 105.232 262.455C105.628 260.583 107.055 258.775 109.513 257.342Z" fill="url(#paint68_linear_970_22349)"/>
<path d="M132.202 250.889C138.43 254.412 138.481 260.132 132.294 263.655C126.121 267.177 116.054 267.177 109.826 263.655C103.599 260.132 103.548 254.412 109.735 250.889C115.908 247.366 125.975 247.366 132.202 250.889Z" fill="url(#paint69_linear_970_22349)"/>
<path d="M109.522 252.81C115.415 249.377 125.026 249.377 130.971 252.81C133.473 254.256 134.932 256.089 135.335 257.974C135.883 255.367 134.436 252.642 130.966 250.642C125.022 247.208 115.412 247.208 109.518 250.642C106.108 252.63 104.683 255.328 105.242 257.923C105.638 256.051 107.064 254.243 109.522 252.81Z" fill="url(#paint70_linear_970_22349)"/>
<path d="M139.604 256.92L139.612 260.819C139.604 263.672 137.729 266.512 134.01 268.694C126.508 273.07 114.283 273.07 106.713 268.694C102.895 266.486 100.996 263.594 101.004 260.715L100.996 256.816C101.002 259.709 102.914 262.6 106.718 264.795C114.288 269.171 126.513 269.171 134.016 264.795C137.747 262.626 139.609 259.773 139.616 256.92H139.604Z" fill="url(#paint71_linear_970_22349)"/>
<path d="M134.113 249.912C141.682 254.15 141.517 260.64 134.015 264.877C126.513 269.114 114.288 269.114 106.718 264.877C99.1477 260.64 99.0962 253.766 106.599 249.541C114.101 245.304 126.542 245.675 134.113 249.912ZM109.626 263.239C115.571 266.564 125.181 266.564 131.074 263.239C136.968 259.915 136.932 254.515 130.988 251.191C125.042 247.866 115.432 247.866 109.538 251.191C103.645 254.515 103.681 259.915 109.626 263.239Z" fill="url(#paint72_linear_970_22349)"/>
<path d="M132.202 245.66C138.43 249.182 138.481 254.903 132.294 258.425C126.121 261.948 116.054 261.948 109.826 258.425C103.599 254.903 103.548 249.182 109.735 245.66C115.908 242.137 125.975 242.137 132.202 245.66Z" fill="url(#paint73_radial_970_22349)"/>
<path d="M109.522 247.582C115.415 244.148 125.026 244.148 130.971 247.582C133.473 249.028 134.932 250.861 135.335 252.746C135.883 250.138 134.436 247.414 130.966 245.413C125.022 241.979 115.412 241.979 109.518 245.413C106.108 247.401 104.683 250.1 105.242 252.694C105.638 250.822 107.064 249.015 109.522 247.582Z" fill="url(#paint74_linear_970_22349)"/>
<path d="M139.604 251.69L139.612 255.589C139.604 258.442 137.729 261.282 134.01 263.464C126.508 267.841 114.283 267.841 106.713 263.464C102.895 261.256 100.996 258.365 101.004 255.486L100.996 251.587C101.002 254.479 102.914 257.371 106.718 259.565C114.288 263.942 126.513 263.942 134.016 259.565C137.747 257.396 139.609 254.543 139.616 251.69H139.604Z" fill="url(#paint75_linear_970_22349)"/>
<path d="M134.113 244.683C141.682 248.92 141.517 255.411 134.015 259.647C126.513 263.885 114.288 263.885 106.718 259.647C99.1477 255.411 99.0962 248.536 106.599 244.311C114.101 240.075 126.542 240.446 134.113 244.683ZM109.626 258.01C115.571 261.335 125.181 261.335 131.074 258.01C136.968 254.686 136.932 249.286 130.988 245.961C125.042 242.637 115.432 242.637 109.538 245.961C103.645 249.286 103.681 254.686 109.626 258.01Z" fill="url(#paint76_linear_970_22349)"/>
<defs>
<linearGradient id="paint0_linear_970_22349" x1="200.001" y1="390.325" x2="200.001" y2="28.2471" gradientUnits="userSpaceOnUse">
<stop offset="0.297" stop-color="#DFEDFF"/>
<stop offset="1" stop-color="#EDF4FD" stop-opacity="0"/>
</linearGradient>
<linearGradient id="paint1_linear_970_22349" x1="234.309" y1="273.848" x2="370.07" y2="261.635" gradientUnits="userSpaceOnUse">
<stop stop-color="#1F7AE0"/>
<stop offset="1" stop-color="#0078FF" stop-opacity="0"/>
</linearGradient>
<linearGradient id="paint2_linear_970_22349" x1="93.2395" y1="243.342" x2="128.931" y2="259.315" gradientUnits="userSpaceOnUse">
<stop stop-color="#1F7AE0" stop-opacity="0.74"/>
<stop offset="1" stop-color="#1F7AE0" stop-opacity="0"/>
</linearGradient>
<linearGradient id="paint3_linear_970_22349" x1="130.971" y1="233.774" x2="130.971" y2="266.655" gradientUnits="userSpaceOnUse">
<stop stop-color="#02856D" stop-opacity="0"/>
<stop offset="1" stop-color="#02856D"/>
</linearGradient>
<linearGradient id="paint4_linear_970_22349" x1="121.32" y1="239.434" x2="90.9291" y2="253.023" gradientUnits="userSpaceOnUse">
<stop stop-color="#70BCFF"/>
<stop offset="1" stop-color="#CDE7FF"/>
</linearGradient>
<linearGradient id="paint5_linear_970_22349" x1="94.9696" y1="239.691" x2="123.676" y2="239.637" gradientUnits="userSpaceOnUse">
<stop stop-color="#6FBDEE"/>
<stop offset="1" stop-color="#5AAEFD"/>
</linearGradient>
<linearGradient id="paint6_linear_970_22349" x1="121.32" y1="235.143" x2="90.929" y2="248.731" gradientUnits="userSpaceOnUse">
<stop stop-color="#70BCFF"/>
<stop offset="1" stop-color="#CDE7FF"/>
</linearGradient>
<linearGradient id="paint7_linear_970_22349" x1="94.9703" y1="235.399" x2="123.676" y2="235.345" gradientUnits="userSpaceOnUse">
<stop stop-color="#6FBDEE"/>
<stop offset="1" stop-color="#5AAEFD"/>
</linearGradient>
<linearGradient id="paint8_linear_970_22349" x1="67.4162" y1="236.514" x2="130.05" y2="251.193" gradientUnits="userSpaceOnUse">
<stop stop-color="#FAFAFA"/>
<stop offset="0.476" stop-color="#9CD4F8"/>
<stop offset="0.852" stop-color="#50B7FA"/>
</linearGradient>
<linearGradient id="paint9_linear_970_22349" x1="132.395" y1="245.401" x2="82.2314" y2="226.502" gradientUnits="userSpaceOnUse">
<stop stop-color="#94DAFF"/>
<stop offset="1" stop-color="#F5FCFF"/>
</linearGradient>
<linearGradient id="paint10_linear_970_22349" x1="121.32" y1="234.566" x2="90.9288" y2="248.154" gradientUnits="userSpaceOnUse">
<stop stop-color="#70BCFF"/>
<stop offset="1" stop-color="#CDE7FF"/>
</linearGradient>
<linearGradient id="paint11_linear_970_22349" x1="94.9696" y1="234.823" x2="123.676" y2="234.769" gradientUnits="userSpaceOnUse">
<stop stop-color="#6FBDEE"/>
<stop offset="1" stop-color="#5AAEFD"/>
</linearGradient>
<linearGradient id="paint12_linear_970_22349" x1="121.32" y1="230.274" x2="90.9291" y2="243.863" gradientUnits="userSpaceOnUse">
<stop stop-color="#70BCFF"/>
<stop offset="1" stop-color="#CDE7FF"/>
</linearGradient>
<linearGradient id="paint13_linear_970_22349" x1="94.9703" y1="230.531" x2="123.676" y2="230.477" gradientUnits="userSpaceOnUse">
<stop stop-color="#6FBDEE"/>
<stop offset="1" stop-color="#5AAEFD"/>
</linearGradient>
<linearGradient id="paint14_linear_970_22349" x1="67.4162" y1="231.645" x2="130.05" y2="246.324" gradientUnits="userSpaceOnUse">
<stop stop-color="#FAFAFA"/>
<stop offset="0.476" stop-color="#9CD4F8"/>
<stop offset="0.852" stop-color="#50B7FA"/>
</linearGradient>
<linearGradient id="paint15_linear_970_22349" x1="132.396" y1="240.534" x2="82.2317" y2="221.634" gradientUnits="userSpaceOnUse">
<stop stop-color="#94DAFF"/>
<stop offset="1" stop-color="#F5FCFF"/>
</linearGradient>
<linearGradient id="paint16_linear_970_22349" x1="121.32" y1="225.324" x2="90.929" y2="238.911" gradientUnits="userSpaceOnUse">
<stop stop-color="#70BCFF"/>
<stop offset="1" stop-color="#CDE7FF"/>
</linearGradient>
<linearGradient id="paint17_linear_970_22349" x1="94.9703" y1="225.581" x2="123.676" y2="225.525" gradientUnits="userSpaceOnUse">
<stop stop-color="#6FBDEE"/>
<stop offset="1" stop-color="#5AAEFD"/>
</linearGradient>
<linearGradient id="paint18_linear_970_22349" x1="67.4162" y1="226.695" x2="130.05" y2="241.373" gradientUnits="userSpaceOnUse">
<stop stop-color="#FAFAFA"/>
<stop offset="0.476" stop-color="#9CD4F8"/>
<stop offset="0.852" stop-color="#50B7FA"/>
</linearGradient>
<linearGradient id="paint19_linear_970_22349" x1="132.395" y1="235.583" x2="82.2314" y2="216.683" gradientUnits="userSpaceOnUse">
<stop stop-color="#94DAFF"/>
<stop offset="1" stop-color="#F5FCFF"/>
</linearGradient>
<linearGradient id="paint20_linear_970_22349" x1="121.887" y1="224.987" x2="91.4955" y2="238.574" gradientUnits="userSpaceOnUse">
<stop stop-color="#70BCFF"/>
<stop offset="1" stop-color="#CDE7FF"/>
</linearGradient>
<linearGradient id="paint21_linear_970_22349" x1="95.536" y1="225.243" x2="124.242" y2="225.188" gradientUnits="userSpaceOnUse">
<stop stop-color="#6FBDEE"/>
<stop offset="1" stop-color="#5AAEFD"/>
</linearGradient>
<linearGradient id="paint22_linear_970_22349" x1="121.887" y1="220.694" x2="91.4955" y2="234.282" gradientUnits="userSpaceOnUse">
<stop stop-color="#70BCFF"/>
<stop offset="1" stop-color="#CDE7FF"/>
</linearGradient>
<linearGradient id="paint23_linear_970_22349" x1="95.5367" y1="220.951" x2="124.242" y2="220.896" gradientUnits="userSpaceOnUse">
<stop stop-color="#6FBDEE"/>
<stop offset="1" stop-color="#5AAEFD"/>
</linearGradient>
<linearGradient id="paint24_linear_970_22349" x1="67.9826" y1="222.066" x2="130.616" y2="236.745" gradientUnits="userSpaceOnUse">
<stop stop-color="#FAFAFA"/>
<stop offset="0.476" stop-color="#9CD4F8"/>
<stop offset="0.852" stop-color="#50B7FA"/>
</linearGradient>
<linearGradient id="paint25_linear_970_22349" x1="132.962" y1="230.954" x2="82.7978" y2="212.055" gradientUnits="userSpaceOnUse">
<stop stop-color="#94DAFF"/>
<stop offset="1" stop-color="#F5FCFF"/>
</linearGradient>
<linearGradient id="paint26_linear_970_22349" x1="121.887" y1="220.118" x2="91.4955" y2="233.706" gradientUnits="userSpaceOnUse">
<stop stop-color="#70BCFF"/>
<stop offset="1" stop-color="#CDE7FF"/>
</linearGradient>
<linearGradient id="paint27_linear_970_22349" x1="95.536" y1="220.375" x2="124.242" y2="220.32" gradientUnits="userSpaceOnUse">
<stop stop-color="#6FBDEE"/>
<stop offset="1" stop-color="#5AAEFD"/>
</linearGradient>
<linearGradient id="paint28_linear_970_22349" x1="121.887" y1="215.827" x2="91.4955" y2="229.414" gradientUnits="userSpaceOnUse">
<stop stop-color="#70BCFF"/>
<stop offset="1" stop-color="#CDE7FF"/>
</linearGradient>
<linearGradient id="paint29_linear_970_22349" x1="95.5367" y1="216.083" x2="124.242" y2="216.028" gradientUnits="userSpaceOnUse">
<stop stop-color="#6FBDEE"/>
<stop offset="1" stop-color="#5AAEFD"/>
</linearGradient>
<linearGradient id="paint30_linear_970_22349" x1="67.9826" y1="217.197" x2="130.616" y2="231.876" gradientUnits="userSpaceOnUse">
<stop stop-color="#FAFAFA"/>
<stop offset="0.476" stop-color="#9CD4F8"/>
<stop offset="0.852" stop-color="#50B7FA"/>
</linearGradient>
<linearGradient id="paint31_linear_970_22349" x1="132.962" y1="226.085" x2="82.7978" y2="207.186" gradientUnits="userSpaceOnUse">
<stop stop-color="#94DAFF"/>
<stop offset="1" stop-color="#F5FCFF"/>
</linearGradient>
<linearGradient id="paint32_linear_970_22349" x1="134.063" y1="219.732" x2="79.0814" y2="212.885" gradientUnits="userSpaceOnUse">
<stop stop-color="#52B8FB"/>
<stop offset="0.503" stop-color="#E3F0FC"/>
<stop offset="0.954" stop-color="#51B8FB"/>
</linearGradient>
<linearGradient id="paint33_linear_970_22349" x1="95.5367" y1="211.132" x2="124.242" y2="211.077" gradientUnits="userSpaceOnUse">
<stop stop-color="#6FBDEE"/>
<stop offset="1" stop-color="#5AAEFD"/>
</linearGradient>
<linearGradient id="paint34_linear_970_22349" x1="67.9826" y1="212.246" x2="130.616" y2="226.925" gradientUnits="userSpaceOnUse">
<stop stop-color="#FAFAFA"/>
<stop offset="0.476" stop-color="#9CD4F8"/>
<stop offset="0.852" stop-color="#50B7FA"/>
</linearGradient>
<linearGradient id="paint35_linear_970_22349" x1="132.962" y1="221.134" x2="82.7978" y2="202.235" gradientUnits="userSpaceOnUse">
<stop stop-color="#51B8FB"/>
<stop offset="0.584" stop-color="#F5FCFF"/>
<stop offset="1" stop-color="#9ED8FD"/>
</linearGradient>
<linearGradient id="paint36_linear_970_22349" x1="121.887" y1="210.5" x2="91.4955" y2="224.087" gradientUnits="userSpaceOnUse">
<stop stop-color="#70BCFF"/>
<stop offset="1" stop-color="#CDE7FF"/>
</linearGradient>
<linearGradient id="paint37_linear_970_22349" x1="95.536" y1="210.756" x2="124.242" y2="210.701" gradientUnits="userSpaceOnUse">
<stop stop-color="#6FBDEE"/>
<stop offset="1" stop-color="#5AAEFD"/>
</linearGradient>
<linearGradient id="paint38_linear_970_22349" x1="121.887" y1="206.212" x2="91.4955" y2="219.8" gradientUnits="userSpaceOnUse">
<stop stop-color="#70BCFF"/>
<stop offset="1" stop-color="#CDE7FF"/>
</linearGradient>
<linearGradient id="paint39_linear_970_22349" x1="95.5367" y1="206.469" x2="124.242" y2="206.414" gradientUnits="userSpaceOnUse">
<stop stop-color="#6FBDEE"/>
<stop offset="1" stop-color="#5AAEFD"/>
</linearGradient>
<linearGradient id="paint40_linear_970_22349" x1="67.9826" y1="207.582" x2="130.616" y2="222.262" gradientUnits="userSpaceOnUse">
<stop stop-color="#FAFAFA"/>
<stop offset="0.476" stop-color="#9CD4F8"/>
<stop offset="0.852" stop-color="#50B7FA"/>
</linearGradient>
<linearGradient id="paint41_linear_970_22349" x1="132.962" y1="216.472" x2="82.7978" y2="197.572" gradientUnits="userSpaceOnUse">
<stop stop-color="#94DAFF"/>
<stop offset="1" stop-color="#F5FCFF"/>
</linearGradient>
<linearGradient id="paint42_linear_970_22349" x1="121.887" y1="205.631" x2="91.4955" y2="219.219" gradientUnits="userSpaceOnUse">
<stop stop-color="#70BCFF"/>
<stop offset="1" stop-color="#CDE7FF"/>
</linearGradient>
<linearGradient id="paint43_linear_970_22349" x1="95.536" y1="205.888" x2="124.242" y2="205.833" gradientUnits="userSpaceOnUse">
<stop stop-color="#6FBDEE"/>
<stop offset="1" stop-color="#5AAEFD"/>
</linearGradient>
<linearGradient id="paint44_linear_970_22349" x1="121.887" y1="201.339" x2="91.4955" y2="214.926" gradientUnits="userSpaceOnUse">
<stop stop-color="#70BCFF"/>
<stop offset="1" stop-color="#CDE7FF"/>
</linearGradient>
<linearGradient id="paint45_linear_970_22349" x1="95.5367" y1="201.596" x2="124.242" y2="201.541" gradientUnits="userSpaceOnUse">
<stop stop-color="#6FBDEE"/>
<stop offset="1" stop-color="#5AAEFD"/>
</linearGradient>
<linearGradient id="paint46_linear_970_22349" x1="67.9826" y1="202.71" x2="130.616" y2="217.389" gradientUnits="userSpaceOnUse">
<stop stop-color="#FAFAFA"/>
<stop offset="0.476" stop-color="#9CD4F8"/>
<stop offset="0.852" stop-color="#50B7FA"/>
</linearGradient>
<linearGradient id="paint47_linear_970_22349" x1="132.962" y1="211.598" x2="82.7978" y2="192.699" gradientUnits="userSpaceOnUse">
<stop stop-color="#94DAFF"/>
<stop offset="1" stop-color="#F5FCFF"/>
</linearGradient>
<linearGradient id="paint48_linear_970_22349" x1="134.063" y1="205.25" x2="79.0814" y2="198.403" gradientUnits="userSpaceOnUse">
<stop stop-color="#52B8FB"/>
<stop offset="0.503" stop-color="#E3F0FC"/>
<stop offset="0.954" stop-color="#51B8FB"/>
</linearGradient>
<linearGradient id="paint49_linear_970_22349" x1="95.5367" y1="196.649" x2="124.242" y2="196.595" gradientUnits="userSpaceOnUse">
<stop stop-color="#6FBDEE"/>
<stop offset="1" stop-color="#5AAEFD"/>
</linearGradient>
<linearGradient id="paint50_linear_970_22349" x1="67.9826" y1="197.763" x2="130.616" y2="212.443" gradientUnits="userSpaceOnUse">
<stop stop-color="#FAFAFA"/>
<stop offset="0.476" stop-color="#9CD4F8"/>
<stop offset="0.852" stop-color="#50B7FA"/>
</linearGradient>
<linearGradient id="paint51_linear_970_22349" x1="132.962" y1="206.651" x2="82.7978" y2="187.752" gradientUnits="userSpaceOnUse">
<stop stop-color="#51B8FB"/>
<stop offset="0.584" stop-color="#F5FCFF"/>
<stop offset="1" stop-color="#9ED8FD"/>
</linearGradient>
<linearGradient id="paint52_linear_970_22349" x1="177.969" y1="239.274" x2="301.366" y2="239.274" gradientUnits="userSpaceOnUse">
<stop stop-color="#00846C"/>
<stop offset="0.15" stop-color="#04866C"/>
<stop offset="0.3" stop-color="#108C6E"/>
<stop offset="0.45" stop-color="#259672"/>
<stop offset="0.61" stop-color="#42A476"/>
<stop offset="0.77" stop-color="#67B77C"/>
<stop offset="0.93" stop-color="#94CE84"/>
<stop offset="1" stop-color="#ADDA88"/>
</linearGradient>
<linearGradient id="paint53_linear_970_22349" x1="195.851" y1="289.677" x2="146.816" y2="284.805" gradientUnits="userSpaceOnUse">
<stop stop-color="#00B385"/>
<stop offset="1" stop-color="#01CF9A"/>
</linearGradient>
<linearGradient id="paint54_linear_970_22349" x1="179.082" y1="213.979" x2="300.512" y2="213.979" gradientUnits="userSpaceOnUse">
<stop stop-color="#00846C"/>
<stop offset="0.15" stop-color="#04866C"/>
<stop offset="0.3" stop-color="#108C6E"/>
<stop offset="0.45" stop-color="#259672"/>
<stop offset="0.61" stop-color="#42A476"/>
<stop offset="0.77" stop-color="#67B77C"/>
<stop offset="0.93" stop-color="#94CE84"/>
<stop offset="1" stop-color="#ADDA88"/>
</linearGradient>
<linearGradient id="paint55_linear_970_22349" x1="178.742" y1="258.458" x2="148.423" y2="258.781" gradientUnits="userSpaceOnUse">
<stop stop-color="#00B385"/>
<stop offset="1" stop-color="#00C895"/>
</linearGradient>
<linearGradient id="paint56_linear_970_22349" x1="179.082" y1="187.118" x2="300.512" y2="187.118" gradientUnits="userSpaceOnUse">
<stop stop-color="#00846C"/>
<stop offset="0.15" stop-color="#04866C"/>
<stop offset="0.3" stop-color="#108C6E"/>
<stop offset="0.45" stop-color="#259672"/>
<stop offset="0.61" stop-color="#42A476"/>
<stop offset="0.77" stop-color="#67B77C"/>
<stop offset="0.93" stop-color="#94CE84"/>
<stop offset="1" stop-color="#ADDA88"/>
</linearGradient>
<linearGradient id="paint57_linear_970_22349" x1="178.742" y1="231.598" x2="148.423" y2="231.921" gradientUnits="userSpaceOnUse">
<stop stop-color="#00B385"/>
<stop offset="1" stop-color="#00C895"/>
</linearGradient>
<linearGradient id="paint58_linear_970_22349" x1="233.532" y1="208.18" x2="283.043" y2="258.029" gradientUnits="userSpaceOnUse">
<stop stop-color="#125AAB"/>
<stop offset="1" stop-color="#125AAB" stop-opacity="0"/>
</linearGradient>
<linearGradient id="paint59_linear_970_22349" x1="116.562" y1="243.474" x2="147.704" y2="280.134" gradientUnits="userSpaceOnUse">
<stop stop-color="#03866D"/>
<stop offset="1" stop-color="#03866D" stop-opacity="0"/>
</linearGradient>
<linearGradient id="paint60_linear_970_22349" x1="103.764" y1="267.482" x2="145.395" y2="281.52" gradientUnits="userSpaceOnUse">
<stop stop-color="#1F7AE0"/>
<stop offset="1" stop-color="#1F7AE0" stop-opacity="0"/>
</linearGradient>
<linearGradient id="paint61_linear_970_22349" x1="132.943" y1="262.414" x2="100.839" y2="276.768" gradientUnits="userSpaceOnUse">
<stop stop-color="#70BCFF"/>
<stop offset="1" stop-color="#CDE7FF"/>
</linearGradient>
<linearGradient id="paint62_linear_970_22349" x1="105.107" y1="262.69" x2="135.431" y2="262.632" gradientUnits="userSpaceOnUse">
<stop stop-color="#6FBDEE"/>
<stop offset="1" stop-color="#5AAEFD"/>
</linearGradient>
<linearGradient id="paint63_linear_970_22349" x1="132.953" y1="257.883" x2="100.848" y2="272.237" gradientUnits="userSpaceOnUse">
<stop stop-color="#70BCFF"/>
<stop offset="1" stop-color="#CDE7FF"/>
</linearGradient>
<linearGradient id="paint64_linear_970_22349" x1="105.117" y1="258.154" x2="135.441" y2="258.096" gradientUnits="userSpaceOnUse">
<stop stop-color="#6FBDEE"/>
<stop offset="1" stop-color="#5AAEFD"/>
</linearGradient>
<linearGradient id="paint65_linear_970_22349" x1="76.0094" y1="259.327" x2="142.174" y2="274.834" gradientUnits="userSpaceOnUse">
<stop stop-color="#FAFAFA"/>
<stop offset="0.476" stop-color="#9CD4F8"/>
<stop offset="0.852" stop-color="#50B7FA"/>
</linearGradient>
<linearGradient id="paint66_linear_970_22349" x1="144.652" y1="268.719" x2="91.6595" y2="248.754" gradientUnits="userSpaceOnUse">
<stop stop-color="#94DAFF"/>
<stop offset="1" stop-color="#F5FCFF"/>
</linearGradient>
<linearGradient id="paint67_linear_970_22349" x1="132.943" y1="257.272" x2="100.839" y2="271.626" gradientUnits="userSpaceOnUse">
<stop stop-color="#70BCFF"/>
<stop offset="1" stop-color="#CDE7FF"/>
</linearGradient>
<linearGradient id="paint68_linear_970_22349" x1="105.107" y1="257.548" x2="135.431" y2="257.491" gradientUnits="userSpaceOnUse">
<stop stop-color="#6FBDEE"/>
<stop offset="1" stop-color="#5AAEFD"/>
</linearGradient>
<linearGradient id="paint69_linear_970_22349" x1="132.953" y1="252.746" x2="100.848" y2="267.1" gradientUnits="userSpaceOnUse">
<stop stop-color="#70BCFF"/>
<stop offset="1" stop-color="#CDE7FF"/>
</linearGradient>
<linearGradient id="paint70_linear_970_22349" x1="105.117" y1="253.017" x2="135.441" y2="252.959" gradientUnits="userSpaceOnUse">
<stop stop-color="#6FBDEE"/>
<stop offset="1" stop-color="#5AAEFD"/>
</linearGradient>
<linearGradient id="paint71_linear_970_22349" x1="76.0094" y1="254.191" x2="142.174" y2="269.698" gradientUnits="userSpaceOnUse">
<stop stop-color="#FAFAFA"/>
<stop offset="0.476" stop-color="#9CD4F8"/>
<stop offset="0.852" stop-color="#50B7FA"/>
</linearGradient>
<linearGradient id="paint72_linear_970_22349" x1="144.652" y1="263.582" x2="91.6595" y2="243.617" gradientUnits="userSpaceOnUse">
<stop stop-color="#94DAFF"/>
<stop offset="1" stop-color="#F5FCFF"/>
</linearGradient>
<radialGradient id="paint73_radial_970_22349" cx="0" cy="0" r="1" gradientUnits="userSpaceOnUse" gradientTransform="translate(117.287 251.5) rotate(-164.449) scale(15.0673 25.8298)">
<stop stop-color="#E2F2FF"/>
<stop offset="0.521" stop-color="#B5DCFF"/>
<stop offset="1" stop-color="#E2F2FF"/>
</radialGradient>
<linearGradient id="paint74_linear_970_22349" x1="105.117" y1="247.789" x2="135.441" y2="247.731" gradientUnits="userSpaceOnUse">
<stop stop-color="#6FBDEE"/>
<stop offset="1" stop-color="#5AAEFD"/>
</linearGradient>
<linearGradient id="paint75_linear_970_22349" x1="76.0094" y1="248.961" x2="142.174" y2="264.468" gradientUnits="userSpaceOnUse">
<stop stop-color="#FAFAFA"/>
<stop offset="0.476" stop-color="#9CD4F8"/>
<stop offset="0.852" stop-color="#50B7FA"/>
</linearGradient>
<linearGradient id="paint76_linear_970_22349" x1="144.652" y1="258.352" x2="91.6595" y2="238.387" gradientUnits="userSpaceOnUse">
<stop stop-color="#66CAFF"/>
<stop offset="0.563" stop-color="#F5FCFF"/>
<stop offset="0.824" stop-color="#A5DFFF"/>
</linearGradient>
</defs>
</svg>
